<svg width="512" height="512" viewBox="0 0 512 512" xmlns="http://www.w3.org/2000/svg">
  <defs>
    <linearGradient id="bg" x1="0%" y1="0%" x2="100%" y2="100%">
      <stop offset="0%" style="stop-color:#9333ea;stop-opacity:1"/>
      <stop offset="100%" style="stop-color:#ec4899;stop-opacity:1"/>
    </linearGradient>
  </defs>
  <rect width="512" height="512" fill="url(#bg)"/>
  <g transform="translate(102.4,102.4) scale(1.536)">
    <rect x="80" y="40" width="40" height="10" rx="5" fill="#ffffff"/>
    <rect x="65" y="48" width="70" height="100" rx="8" fill="#ffffff"/>
    <circle cx="80" cy="70" r="5" fill="none" stroke="#9333ea" stroke-width="3"/>
    <line x1="80" y1="70" x2="82" y2="72" stroke="#9333ea" stroke-width="3" stroke-linecap="round"/>
    <line x1="82" y1="72" x2="85" y2="67" stroke="#9333ea" stroke-width="3" stroke-linecap="round"/>
    <line x1="93" y1="70" x2="120" y2="70" stroke="#9333ea" stroke-width="3" stroke-linecap="round"/>
    <circle cx="80" cy="92" r="5" fill="none" stroke="#ec4899" stroke-width="3"/>
    <line x1="93" y1="92" x2="120" y2="92" stroke="#ec4899" stroke-width="3" stroke-linecap="round"/>
    <circle cx="80" cy="114" r="5" fill="none" stroke="#9333ea" stroke-width="3"/>
    <line x1="93" y1="114" x2="120" y2="114" stroke="#9333ea" stroke-width="3" stroke-linecap="round"/>
    <text x="100" y="140" font-family="Arial, sans-serif" font-size="24" font-weight="bold" fill="#eab308" text-anchor="middle">A+</text>
    <g transform="translate(115,125) rotate(40)">
      <rect x="0" y="0" width="10" height="30" rx="2" fill="#ec4899"/>
      <polygon points="0,30 10,30 5,38" fill="#9333ea"/>
    </g>
  </g>
</svg>
